<?xml version="1.0" standalone="no"?>
<!DOCTYPE svg PUBLIC "-//W3C//DTD SVG 20010904//EN"
 "http://www.w3.org/TR/2001/REC-SVG-20010904/DTD/svg10.dtd">
<svg version="1.0" xmlns="http://www.w3.org/2000/svg"
 width="300.000000pt" height="300.000000pt" viewBox="0 0 300.000000 300.000000"
 preserveAspectRatio="xMidYMid meet">
<metadata>
Created by potrace 1.10, written by Peter Selinger 2001-2011
</metadata>
<g transform="translate(0.000000,300.000000) scale(0.100000,-0.100000)"
fill="#000000" stroke="none">
<path d="M0 1500 l0 -1500 1500 0 1500 0 0 1500 0 1500 -1500 0 -1500 0 0
-1500z m1665 991 c87 -20 224 -94 303 -166 40 -36 69 -65 65 -65 -4 0 -3 -4 2
-8 14 -10 57 -71 74 -104 8 -15 19 -25 24 -21 6 3 7 1 3 -6 -4 -6 -1 -22 7
-34 25 -39 49 -174 50 -280 1 -81 -3 -115 -20 -162 -23 -64 -86 -183 -118
-225 -31 -39 -143 -150 -152 -150 -4 -1 -24 -15 -43 -31 l-35 -31 35 18 c19 9
50 17 67 16 26 -1 36 4 47 26 8 16 35 47 61 71 37 34 52 42 71 37 19 -5 24 -3
24 13 0 45 22 119 44 143 19 24 24 25 37 13 12 -12 14 -4 11 61 -3 67 -1 79
18 99 20 22 21 24 6 60 -21 49 -21 121 -1 129 12 4 10 12 -10 42 -33 48 -40
80 -27 109 8 18 8 26 -4 35 -8 7 -14 9 -14 5 0 -5 -9 0 -20 10 -11 10 -20 26
-20 35 0 9 -5 21 -11 27 -6 6 -9 21 -7 34 2 19 -5 28 -35 43 -52 26 -72 57
-56 87 9 18 9 24 0 27 -19 6 -51 44 -72 84 -17 33 -17 38 -3 52 30 31 109 16
158 -29 32 -29 36 -30 41 -14 6 19 40 25 61 11 27 -19 64 -82 70 -121 6 -40 8
-42 20 -26 33 45 94 -42 94 -132 0 -36 3 -40 19 -36 49 13 76 -131 38 -206
-16 -33 -16 -34 1 -17 18 15 20 15 37 -4 36 -40 17 -184 -30 -223 -6 -5 -3 -7
7 -4 50 16 67 -68 28 -141 -27 -52 -40 -66 -80 -90 l-34 -21 35 5 c48 8 67
-13 49 -56 -14 -34 -104 -120 -126 -120 -8 0 -14 -4 -14 -9 0 -5 -10 -7 -22
-4 -16 4 -20 2 -13 -5 6 -6 24 -12 40 -14 48 -5 45 -38 -7 -83 -48 -41 -116
-77 -129 -69 -21 12 -28 -9 -9 -24 19 -16 20 -18 4 -40 -21 -30 -94 -62 -141
-62 -26 0 -36 -5 -40 -20 -7 -27 -60 -55 -110 -59 -56 -3 -144 23 -181 54 -17
14 -37 25 -46 25 -19 0 -20 -4 -4 -29 9 -15 9 -23 -1 -35 -20 -24 -77 -20
-161 11 -21 8 -46 4 -78 -13 -41 -21 -109 -18 -121 5 -8 14 -7 22 5 32 14 11
14 13 -1 22 -12 6 -28 1 -57 -18 -23 -15 -46 -28 -52 -29 -6 -1 -17 -5 -24
-10 -38 -23 -189 -11 -217 19 -14 15 -17 35 -5 35 6 0 10 4 10 8 0 4 -19 8
-42 7 -106 -3 -212 76 -136 101 17 5 11 10 -30 23 -59 20 -128 65 -149 98 -21
31 -2 53 45 53 35 0 34 0 -26 31 -59 29 -127 95 -133 129 -5 34 11 47 54 44
28 -2 37 0 27 6 -8 5 -17 8 -20 6 -3 -1 -17 11 -32 26 -15 15 -24 28 -20 28 4
0 2 4 -4 8 -20 13 -44 75 -44 112 0 47 22 70 52 51 27 -17 32 -9 8 16 -51 55
-65 172 -28 226 l20 27 19 -22 20 -23 -18 30 c-13 20 -18 49 -18 95 0 82 19
124 52 117 21 -4 23 0 23 33 0 44 26 124 46 140 7 7 19 10 26 7 21 -8 33 -7
34 1 2 28 17 72 25 72 5 0 9 8 9 18 0 19 58 64 72 56 5 -4 13 -15 17 -25 6
-18 10 -17 51 14 52 40 117 53 149 30 l21 -14 -20 -40 c-11 -21 -25 -39 -30
-39 -6 0 -10 -6 -10 -14 0 -8 -9 -18 -20 -21 -22 -7 -26 -20 -10 -30 14 -9 12
-48 -2 -65 -7 -8 21 17 63 56 88 80 228 157 329 179 73 16 236 14 315 -4z
m-838 -1631 c17 -6 36 -22 43 -36 l14 -25 14 24 c30 48 94 55 139 15 21 -20
21 -20 28 1 5 17 14 21 53 21 68 0 86 -8 106 -42 15 -24 17 -44 12 -111 -4
-68 -9 -84 -30 -106 -21 -20 -34 -24 -76 -23 -37 1 -56 6 -65 18 -12 16 -14
16 -40 -4 -31 -25 -56 -28 -88 -10 -30 16 -46 38 -48 68 -1 20 -2 21 -6 5 -2
-11 -6 -27 -9 -35 -3 -8 -5 -17 -5 -20 0 -8 -66 -29 -81 -26 -47 10 -77 50
-79 103 0 15 -3 22 -6 16 -2 -7 -14 -13 -25 -13 -18 0 -20 -5 -15 -39 6 -45
-6 -61 -42 -61 -51 0 -55 9 -55 144 -1 96 2 127 12 131 25 9 128 5 139 -6 8
-8 19 -6 39 5 35 19 34 18 71 6z m771 -10 c17 -11 32 -25 32 -32 0 -7 6 -2 13
12 11 22 20 25 67 28 68 3 95 -16 108 -75 8 -35 7 -45 -9 -62 -19 -20 -16 -51
9 -98 8 -15 7 -22 -9 -31 -25 -16 -56 -15 -62 1 -3 9 -7 9 -20 -1 -25 -21 -70
-11 -84 18 -7 14 -13 20 -13 13 0 -24 -39 -49 -75 -48 -53 3 -85 37 -85 93 0
43 -1 44 -18 29 -10 -10 -26 -17 -34 -17 -13 0 -15 -8 -11 -40 5 -35 3 -41
-20 -51 -14 -6 -37 -9 -51 -5 l-25 6 2 123 c1 67 6 128 10 135 10 15 107 16
140 1 19 -9 31 -8 53 5 38 20 43 20 82 -4z m375 -4 c10 -11 13 -35 10 -98 l-4
-84 35 0 35 0 -1 86 c-1 47 2 92 6 99 9 14 77 11 88 -4 5 -6 8 -5 8 3 0 15
112 17 140 2 13 -7 21 -7 25 0 3 5 35 10 71 10 60 0 65 -2 75 -26 14 -39 2
-67 -27 -61 -26 5 -33 -7 -9 -17 24 -9 19 -62 -7 -81 l-23 -16 27 6 c20 5 29
2 37 -13 29 -55 4 -79 -80 -76 -35 1 -68 2 -72 3 -5 1 -7 22 -6 49 1 26 1 70
1 97 -2 48 -3 50 -32 51 -34 1 -40 -11 -10 -19 29 -8 28 -67 -1 -74 -18 -5
-21 -11 -16 -44 4 -27 0 -42 -12 -53 -17 -15 -54 -13 -78 6 -7 6 -14 5 -18 -3
-5 -7 -24 -10 -55 -6 -27 3 -52 1 -58 -5 -13 -13 -109 -1 -119 15 -8 12 -14
247 -7 259 8 13 61 9 77 -6z"/>
<path d="M1375 2479 c-214 -52 -391 -189 -480 -374 -96 -199 -85 -445 28 -615
51 -77 138 -170 191 -206 54 -37 182 -90 237 -99 19 -3 46 -8 61 -11 84 -17
245 1 338 37 185 74 353 265 405 461 24 90 17 264 -15 357 -31 92 -111 211
-189 282 -73 66 -213 142 -296 160 -69 15 -231 20 -280 8z m228 -33 c237 -46
445 -233 513 -461 28 -94 24 -260 -8 -351 -47 -133 -149 -260 -272 -339 -103
-65 -179 -85 -333 -85 -96 0 -132 4 -198 25 -301 92 -495 408 -434 707 18 87
92 229 156 298 94 102 221 175 354 204 85 19 132 19 222 2z"/>
<path d="M1405 2426 c-60 -13 -155 -46 -165 -57 -3 -3 -23 -13 -44 -23 -48
-22 -49 -24 -134 -106 -37 -36 -78 -85 -91 -109 l-24 -44 32 19 c26 15 35 16
49 6 9 -7 28 -17 42 -23 40 -17 60 -40 60 -71 0 -15 4 -28 9 -28 5 0 19 -15
30 -34 20 -31 20 -36 6 -82 -14 -47 -14 -49 12 -84 33 -44 104 -110 119 -110
6 0 17 -7 24 -15 7 -9 15 -14 17 -11 5 4 35 -25 75 -72 38 -45 47 -87 49 -229
2 -121 3 -123 25 -123 13 0 25 3 27 8 3 4 7 68 9 144 1 75 5 135 7 133 2 -2
14 17 27 43 13 26 38 57 56 69 98 67 130 92 165 133 67 78 65 74 49 111 -12
29 -12 37 2 68 9 20 22 43 28 51 6 8 15 29 18 47 5 23 17 36 41 47 19 9 37 21
40 26 10 17 41 11 61 -11 10 -12 18 -23 16 -25 -5 -6 9 -64 18 -84 5 -8 18
-37 29 -65 l21 -50 -5 45 c-6 48 -24 112 -34 120 -4 3 -15 26 -25 52 -9 25
-24 49 -31 52 -8 3 -15 11 -15 18 0 7 -23 37 -50 65 -28 29 -50 51 -50 48 0
-2 -14 9 -32 25 -30 28 -162 99 -191 104 -6 1 -17 5 -23 9 -6 3 -26 8 -45 11
-108 13 -150 14 -204 2z m172 -76 c22 -14 22 -14 -23 -57 -38 -37 -47 -42 -64
-33 -11 6 -20 16 -20 21 0 6 -6 9 -14 6 -8 -3 -21 4 -30 17 -12 19 -12 27 -3
40 7 10 19 18 27 19 8 2 24 8 34 14 20 11 47 4 93 -27z m-162 -83 c35 -13 52
-23 68 -41 l18 -21 17 21 c26 32 51 41 117 42 91 0 149 -39 181 -124 14 -37
15 -53 5 -102 -6 -31 -16 -58 -21 -60 -6 -2 -10 -10 -10 -18 0 -8 -4 -14 -10
-14 -5 0 -10 -10 -11 -22 0 -13 -3 -18 -5 -11 -3 6 -23 -8 -47 -34 -23 -26
-69 -69 -102 -96 -33 -28 -59 -54 -58 -58 2 -5 -3 -6 -11 -3 -7 3 -16 -2 -19
-10 -8 -20 -41 -21 -57 -1 -7 8 -17 12 -23 8 -6 -3 -7 -1 -3 5 3 6 -2 16 -13
21 -43 24 -199 180 -228 229 -38 65 -43 102 -23 160 38 106 140 162 235 129z
m146 -596 c3 0 11 -12 17 -25 10 -22 7 -28 -24 -55 -37 -31 -44 -31 -99 -1
-53 29 -40 86 17 78 16 -3 31 -2 33 2 4 6 31 7 56 1z"/>
<path d="M1493 2356 c-4 -8 -19 -16 -33 -18 -30 -4 -24 -23 8 -23 16 1 22 -5
22 -22 0 -16 4 -21 15 -17 8 3 13 11 12 17 -1 5 9 13 23 17 14 3 25 12 25 20
0 18 -24 21 -44 6 -12 -9 -13 -7 -8 6 8 22 -9 34 -20 14z"/>
<path d="M1315 2248 c-96 -35 -141 -120 -114 -215 15 -54 91 -140 217 -245
l82 -69 33 26 c93 78 221 205 242 240 49 84 37 163 -34 230 -30 28 -38 30
-106 30 -74 0 -75 0 -105 -37 l-31 -37 -32 35 c-41 44 -101 61 -152 42z m82
-60 c-2 -7 -20 -13 -41 -13 -30 -1 -44 -7 -68 -34 -25 -28 -29 -40 -26 -77 2
-31 -1 -44 -9 -44 -18 0 -17 84 2 120 8 16 28 36 43 44 34 19 105 21 99 4z"/>
<path d="M1447 1643 c-16 -15 -6 -34 15 -31 29 4 38 38 10 38 -10 0 -22 -3
-25 -7z"/>
<path d="M1500 1631 c-5 -11 -10 -27 -10 -35 0 -20 29 -21 36 -1 4 8 12 15 19
15 14 0 27 25 18 34 -14 13 -53 5 -63 -13z"/>
<path d="M953 1972 c-34 -103 -41 -133 -34 -162 19 -80 55 -187 73 -217 11
-18 70 -71 133 -117 63 -47 119 -94 125 -105 5 -11 12 -39 14 -63 3 -42 5 -43
52 -59 27 -9 68 -19 92 -23 l42 -6 0 127 c0 113 -3 134 -24 179 -22 48 -107
134 -132 134 -12 0 -84 68 -141 132 -33 37 -60 43 -76 16 -15 -23 -1 -61 42
-113 36 -43 103 -166 96 -174 -9 -9 -29 16 -55 73 -23 48 -39 67 -70 85 -41
23 -83 82 -101 143 -8 27 -4 50 23 130 27 82 30 100 20 122 -6 14 -17 26 -24
26 -8 0 -31 -53 -55 -128z m182 -201 c10 -17 -12 -21 -25 -6 -10 12 -10 15 3
15 9 0 18 -4 22 -9z m210 -202 c30 -28 47 -52 51 -76 7 -37 -8 -83 -28 -83 -9
0 -9 3 0 12 7 7 12 30 12 52 0 35 -6 46 -50 88 -61 58 -48 65 15 7z m42 -245
c-3 -3 -12 -4 -19 -1 -8 3 -5 6 6 6 11 1 17 -2 13 -5z"/>
<path d="M1972 2088 c-19 -19 -14 -56 18 -147 l30 -84 -22 -60 c-16 -40 -36
-70 -63 -93 -77 -67 -81 -72 -116 -159 -6 -17 -13 -25 -16 -18 -7 18 23 81 79
165 52 80 59 118 23 132 -23 9 -36 -1 -88 -65 -27 -33 -78 -79 -117 -105 -124
-82 -139 -112 -147 -308 l-6 -129 49 7 c27 4 68 12 90 18 40 9 42 11 46 57 6
63 33 97 143 181 146 111 139 101 179 239 l37 124 -43 128 c-24 71 -48 128
-53 129 -6 0 -16 -5 -23 -12z m-82 -316 c0 -13 -12 -22 -22 -16 -10 6 -1 24
13 24 5 0 9 -4 9 -8z m-175 -175 c-39 -23 -84 -74 -91 -102 -4 -16 -2 -41 4
-57 13 -35 -1 -46 -17 -12 -15 33 -14 59 3 93 19 36 82 91 104 90 15 0 14 -2
-3 -12z"/>
<path d="M919 2013 c-11 -38 -23 -77 -24 -88 -2 -11 -6 -36 -9 -55 -5 -25 -4
-31 4 -20 5 8 10 22 10 31 0 8 11 42 24 75 30 75 41 124 27 124 -6 0 -20 -30
-32 -67z"/>
<path d="M1060 2046 c0 -13 -12 -55 -26 -92 -14 -38 -28 -77 -30 -87 -4 -25
33 -122 53 -139 15 -11 16 -11 8 7 -4 11 -12 43 -18 70 -9 45 -7 57 18 115 34
82 41 116 25 135 -18 22 -30 18 -30 -9z"/>
<path d="M1923 2062 c-25 -16 -23 -57 6 -122 24 -53 29 -74 25 -118 -2 -30
-12 -68 -21 -85 -16 -32 -16 -32 4 -14 12 10 30 45 42 77 l22 59 -27 73 c-14
40 -29 87 -32 105 -5 21 -11 30 -19 25z"/>
<path d="M1090 1941 c-10 -22 -22 -59 -25 -83 l-6 -43 20 24 c12 13 21 31 21
40 0 9 11 29 24 46 13 16 21 35 19 42 -10 24 -33 13 -53 -26z"/>
<path d="M1870 1968 c0 -19 46 -128 59 -141 19 -19 13 43 -11 100 -20 48 -48
72 -48 41z"/>
<path d="M1126 1899 c-13 -32 -14 -44 -5 -55 12 -15 21 -12 25 9 14 65 15 87
6 87 -5 0 -17 -18 -26 -41z"/>
<path d="M1846 1921 c-8 -12 22 -81 34 -81 15 0 12 27 -5 60 -17 32 -21 35
-29 21z"/>
<path d="M2111 1834 c0 -17 -12 -57 -25 -90 -13 -32 -29 -82 -35 -111 -7 -28
-20 -58 -29 -67 -19 -18 -154 -123 -192 -149 -13 -9 -21 -17 -16 -17 5 0 -3
-9 -18 -21 -14 -11 -26 -31 -26 -43 0 -12 -3 -26 -7 -30 -4 -3 -8 -13 -9 -21
-1 -10 12 -6 47 13 86 47 249 220 249 265 0 9 4 18 9 22 11 6 53 128 50 141
-1 5 1 25 5 45 4 20 6 49 3 65 l-4 29 -2 -31z"/>
<path d="M887 1765 c10 -119 83 -269 175 -359 51 -50 167 -130 176 -121 2 2 1
20 -2 39 -8 40 -42 78 -118 129 -90 60 -172 146 -175 182 -1 11 -9 40 -18 65
-9 25 -17 51 -17 58 -1 6 -5 12 -9 12 -4 0 -10 10 -12 23 -2 12 -3 0 0 -28z"/>
<path d="M957 2470 c-46 -9 -94 -52 -103 -94 -3 -17 -11 -34 -17 -38 -24 -15
2 -18 29 -4 16 8 41 18 56 21 28 5 112 101 102 116 -6 10 -12 10 -67 -1z m-17
-60 c-19 -17 -39 -30 -45 -30 -5 1 6 14 25 30 19 17 39 30 45 30 5 -1 -6 -14
-25 -30z"/>
<path d="M1976 2472 c-9 -15 24 -67 57 -89 18 -13 53 -29 79 -36 l45 -14 -7
34 c-12 49 -37 83 -75 99 -37 15 -91 19 -99 6z m99 -54 c33 -22 45 -38 27 -38
-10 0 -79 59 -69 60 4 0 23 -10 42 -22z"/>
<path d="M776 2419 c-15 -18 -32 -44 -37 -58 -12 -29 -9 -120 3 -127 5 -3 0
-20 -12 -38 -11 -18 -17 -36 -14 -39 9 -8 -6 -47 -17 -47 -6 0 -8 4 -4 10 18
29 -5 180 -27 180 -16 0 -48 -84 -48 -128 0 -46 23 -112 39 -112 5 0 13 9 16
20 3 11 11 20 17 20 5 0 -2 -20 -16 -43 -14 -24 -23 -52 -20 -63 5 -19 -13
-95 -39 -168 -13 -36 -15 -38 -22 -17 -4 13 -23 41 -43 63 -32 35 -37 38 -43
21 -14 -33 -9 -104 8 -141 10 -20 35 -54 56 -75 22 -22 43 -55 49 -73 5 -19
22 -64 39 -100 24 -56 32 -64 44 -54 38 32 71 199 47 238 -11 17 -55 -30 -81
-87 l-19 -44 -7 48 c-6 39 -5 49 9 57 28 16 58 51 77 93 19 42 26 125 10 125
-5 0 -32 -22 -60 -49 -51 -50 -51 -50 -52 -118 l-2 -68 -10 62 c-8 53 -7 64 7
78 9 9 16 29 16 45 0 19 6 31 19 35 33 10 100 85 111 123 12 44 13 62 3 62
-14 0 -78 -41 -90 -58 -12 -14 -13 -14 -13 4 0 25 29 51 94 84 49 24 86 69 86
103 0 20 -11 18 -77 -9 -38 -15 -39 -13 -17 21 12 18 26 25 48 25 60 1 158 62
141 89 -19 32 -120 0 -155 -48 -31 -45 -37 -31 -6 16 29 43 41 105 28 147 l-8
29 -28 -34z m0 -106 c-10 -26 -18 -8 -9 23 5 21 8 24 11 11 2 -10 1 -25 -2
-34z m99 -38 c-40 -19 -67 -18 -35 0 14 8 34 14 45 14 15 -1 13 -4 -10 -14z
m-207 -86 c1 -16 3 -33 3 -37 1 -4 0 -14 -1 -22 -2 -8 -6 5 -9 30 -6 40 -5 60
2 60 2 0 4 -14 5 -31z m109 -59 c-14 -11 -31 -20 -39 -20 -17 1 33 39 51 40 8
0 3 -9 -12 -20z m-62 -170 c-16 -16 -31 -28 -34 -25 -2 3 8 19 24 35 16 16 31
28 34 25 2 -3 -8 -19 -24 -35z m-145 -182 c23 -50 27 -83 7 -53 -25 39 -47 95
-36 95 5 0 19 -19 29 -42z m129 -5 c-29 -50 -39 -60 -39 -43 0 17 42 80 53 80
5 0 -1 -17 -14 -37z m11 -219 l-20 -59 6 50 c5 45 21 82 31 72 2 -2 -6 -30
-17 -63z"/>
<path d="M2184 2386 c2 -55 7 -69 34 -102 42 -51 41 -70 -1 -22 -17 20 -45 42
-60 47 -38 15 -94 14 -103 -1 -13 -21 53 -65 119 -79 69 -16 127 -63 153 -124
23 -57 15 -74 -10 -20 -13 28 -34 59 -47 71 -25 22 -107 50 -117 40 -3 -4 2
-22 11 -41 17 -36 96 -95 127 -95 19 0 36 -19 65 -70 15 -26 20 -55 20 -118 1
-81 -7 -112 -19 -74 -7 21 -79 82 -97 82 -15 0 -5 -113 11 -118 5 -2 10 -9 10
-16 0 -7 19 -32 42 -56 l42 -43 7 26 c4 14 10 66 14 116 4 50 11 91 16 91 4 0
20 17 34 37 21 31 25 49 25 105 0 75 -6 98 -26 98 -13 0 -54 -80 -54 -106 0
-23 -17 -16 -24 9 -3 13 4 50 15 82 22 62 20 96 -7 160 -8 19 -19 35 -24 35
-9 0 -35 -40 -32 -50 1 -3 -1 -20 -4 -39 -6 -31 -8 -32 -19 -17 -8 11 -12 39
-10 74 2 34 -2 70 -11 91 -15 36 -61 91 -75 91 -4 0 -6 -29 -5 -64z m56 -52
c16 -48 5 -55 -14 -9 -19 44 -19 45 -7 45 5 0 15 -16 21 -36z m-90 -54 c8 -5
12 -12 9 -15 -8 -8 -39 5 -39 16 0 11 11 11 30 -1z m199 -107 c0 -36 -2 -43
-9 -27 -7 18 -3 74 6 74 2 0 4 -21 3 -47z m-84 -53 c12 -19 -14 -10 -42 16
l-28 25 32 -15 c17 -9 35 -20 38 -26z m160 -129 c-4 -22 -13 -45 -21 -52 -12
-9 -13 -9 -10 2 3 8 10 34 16 58 14 53 25 48 15 -8z m-81 -248 c4 -13 5 -23 2
-23 -9 0 -46 63 -46 79 0 18 35 -27 44 -56z"/>
<path d="M925 2240 c-4 -6 -18 -15 -32 -21 -17 -6 -23 -14 -19 -27 3 -9 -1
-30 -9 -46 -8 -15 -12 -32 -9 -37 3 -5 2 -9 -3 -8 -19 3 -34 -2 -28 -10 3 -5
-2 -11 -12 -13 -13 -2 -17 -15 -17 -58 -1 -42 -7 -63 -25 -88 -19 -25 -22 -35
-13 -44 15 -15 15 -99 0 -133 -10 -21 -9 -31 5 -55 11 -17 17 -50 17 -86 0
-46 5 -63 23 -83 33 -37 48 -90 49 -168 0 -37 -1 -72 -2 -78 -4 -18 0 -35 8
-35 4 0 7 25 7 55 0 29 5 59 12 66 18 18 81 -28 123 -89 19 -29 39 -52 44 -52
5 0 18 8 29 18 11 9 18 12 14 6 -4 -7 11 -18 37 -28 53 -20 129 -99 157 -161
23 -51 44 -59 76 -27 23 23 24 23 53 5 17 -9 30 -23 30 -29 0 -7 16 -14 36
-16 29 -3 44 2 76 28 41 32 67 34 89 8 18 -22 57 -17 65 9 5 12 7 25 6 30 -1
4 2 7 7 7 5 0 15 16 21 35 6 19 16 35 21 35 6 0 7 5 4 10 -4 6 -3 9 2 8 4 -2
18 7 31 20 12 12 21 22 19 22 -1 0 -27 -9 -57 -20 -137 -50 -305 -58 -440 -21
-74 20 -86 25 -105 38 -11 7 -27 13 -37 13 -9 0 -23 6 -30 13 -7 7 -33 27 -58
45 -67 47 -81 61 -136 132 -73 93 -108 163 -135 265 -14 53 -19 265 -6 265 4
0 7 11 7 24 0 32 78 217 99 236 20 18 31 39 22 44 -5 4 -13 1 -16 -4z"/>
<path d="M561 2111 c-32 -59 -22 -140 27 -214 23 -34 27 -36 35 -21 6 10 11
46 11 79 1 49 -5 73 -28 118 -15 31 -30 57 -32 57 -2 0 -8 -8 -13 -19z m46
-134 c3 -21 1 -37 -4 -37 -5 0 -10 6 -10 13 -1 6 -4 28 -8 47 -6 26 -5 32 4
24 6 -6 14 -27 18 -47z"/>
<path d="M2227 2023 c-8 -36 33 -97 88 -134 l40 -28 3 27 c7 52 -16 99 -64
131 -25 17 -49 31 -53 31 -5 0 -11 -12 -14 -27z m99 -90 c-9 -9 -56 42 -56 60
0 6 14 -3 32 -20 18 -18 28 -36 24 -40z"/>
<path d="M2458 1873 c-44 -48 -56 -76 -64 -148 -4 -38 -13 -79 -20 -90 -7 -11
-13 -42 -12 -70 1 -30 -6 -63 -16 -83 -10 -19 -15 -36 -12 -39 10 -10 79 20
111 49 32 27 56 76 69 141 5 21 3 27 -11 27 -22 -1 -93 -54 -111 -83 -12 -20
-13 -19 -8 18 4 30 16 50 47 80 23 21 48 54 55 72 15 35 19 153 6 153 -5 0
-20 -12 -34 -27z m12 -58 c0 -13 -43 -95 -48 -91 -7 8 28 96 39 96 5 0 9 -2 9
-5z m-9 -242 c-14 -26 -70 -77 -77 -71 -6 7 66 88 79 88 4 0 3 -8 -2 -17z"/>
<path d="M2244 1654 c-9 -62 -1 -111 28 -172 l25 -51 -27 -41 -27 -41 -5 63
c-6 63 -24 118 -39 118 -25 0 -44 -79 -43 -173 2 -98 12 -102 82 -31 64 64
101 114 84 114 -6 0 -3 22 8 54 15 41 17 61 9 88 -10 38 -63 118 -78 118 -6 0
-13 -21 -17 -46z m61 -111 l5 -48 -14 40 c-8 22 -15 51 -15 65 -1 44 19 -2 24
-57z m-95 -158 c0 -30 -4 -57 -10 -60 -6 -4 -10 18 -10 60 0 42 4 64 10 60 6
-3 10 -30 10 -60z"/>
<path d="M490 1625 c0 -71 74 -166 141 -180 15 -4 35 -18 45 -33 9 -14 30 -36
45 -49 15 -13 38 -39 49 -58 23 -37 44 -45 54 -19 19 50 -6 222 -35 240 -12 7
-49 -80 -49 -117 0 -16 -4 -29 -10 -29 -5 0 -10 4 -10 9 0 5 -12 22 -28 38
-15 15 -36 48 -47 73 -27 64 -60 107 -106 135 -21 14 -41 25 -44 25 -3 0 -5
-16 -5 -35z m120 -115 c0 -5 -3 -10 -7 -10 -10 0 -63 75 -63 87 1 11 70 -65
70 -77z m184 -128 c5 -37 4 -52 -4 -47 -5 3 -10 29 -10 57 0 64 5 60 14 -10z"/>
<path d="M520 1408 c0 -6 18 -32 40 -58 47 -56 112 -90 173 -90 32 0 49 -6 63
-21 10 -12 33 -30 49 -40 36 -23 26 -24 -39 -4 -54 16 -176 20 -176 6 0 -5 16
-22 36 -37 19 -16 42 -35 50 -42 8 -7 14 -11 14 -7 0 3 10 1 21 -6 27 -14 130
-14 156 0 15 7 25 6 41 -5 12 -8 22 -13 22 -10 0 12 -156 166 -168 166 -15 0
-26 10 -63 60 -15 20 -50 47 -80 61 -58 28 -139 44 -139 27z m150 -75 c23 -16
36 -29 29 -32 -7 -2 -15 1 -17 8 -2 6 -9 11 -15 11 -16 1 -65 39 -50 40 6 0
30 -12 53 -27z m155 -182 c38 -8 38 -9 9 -10 -43 -1 -94 10 -94 20 0 5 10 7
23 4 12 -3 40 -9 62 -14z"/>
<path d="M2391 1404 c-60 -16 -110 -49 -154 -101 -16 -18 -41 -40 -55 -47 -36
-19 -106 -85 -99 -92 7 -7 59 27 102 67 20 18 44 29 75 32 90 9 126 28 179 96
51 64 44 70 -48 45z m-11 -48 c-22 -21 -92 -58 -98 -51 -3 3 -3 6 -1 8 22 13
105 56 109 57 2 0 -2 -6 -10 -14z"/>
<path d="M2048 1322 c-25 -26 -54 -63 -64 -82 -21 -42 -55 -152 -49 -158 2 -3
29 10 59 28 71 43 103 100 107 187 1 35 0 65 -2 68 -3 2 -26 -17 -51 -43z m-9
-110 c-56 -101 -67 -99 -17 2 17 36 35 63 40 60 4 -3 -6 -31 -23 -62z"/>
<path d="M890 1293 c0 -58 4 -75 27 -108 34 -50 58 -71 108 -95 46 -22 52 -20
32 12 -9 12 -22 47 -31 75 -18 62 -64 133 -106 163 l-30 21 0 -68z m101 -117
c5 -6 9 -17 9 -25 0 -22 -13 -5 -48 60 -17 32 -28 60 -25 63 3 3 17 -16 31
-42 13 -26 28 -51 33 -56z"/>
<path d="M2127 1281 c-8 -38 -5 -48 10 -29 5 7 7 24 3 38 -6 24 -7 23 -13 -9z"/>
<path d="M738 1233 c6 -2 18 -2 25 0 6 3 1 5 -13 5 -14 0 -19 -2 -12 -5z"/>
<path d="M1060 1222 c0 -5 7 -32 16 -61 20 -69 79 -125 146 -142 27 -6 51 -9
53 -7 2 2 -6 26 -19 53 -26 57 -97 127 -152 150 -42 17 -44 18 -44 7z m148
-157 c-8 -9 -98 80 -98 97 0 7 23 -11 52 -39 29 -29 49 -55 46 -58z"/>
<path d="M1856 1199 c-27 -17 -57 -40 -67 -52 -26 -31 -73 -126 -66 -134 13
-12 98 21 131 51 30 27 76 122 76 156 0 17 -23 10 -74 -21z m14 -46 c0 -5 -21
-30 -46 -58 -53 -58 -54 -50 -4 17 33 44 50 58 50 41z"/>
<path d="M2190 1196 c-57 -20 -123 -54 -155 -81 -32 -27 -25 -33 15 -11 15 9
32 11 46 6 35 -14 117 -14 142 -1 12 6 22 9 22 6 0 -3 25 13 55 36 30 23 55
45 55 50 0 13 -139 9 -180 -5z m64 -30 c-6 -15 -50 -27 -98 -25 -23 1 -16 4
27 14 32 7 61 15 64 19 10 10 13 7 7 -8z"/>
<path d="M863 1057 c-40 -12 -73 -25 -73 -29 0 -10 63 -36 112 -47 46 -11 123
4 160 31 18 12 35 17 53 12 31 -8 43 -24 18 -24 -10 -1 -43 -14 -73 -30 -30
-17 -61 -30 -67 -30 -7 0 -13 -7 -13 -17 0 -9 3 -14 6 -10 3 3 18 1 32 -4 77
-29 148 -19 225 32 35 23 54 29 74 25 16 -3 46 -7 68 -8 63 -2 64 -11 5 -29
-30 -9 -56 -22 -58 -29 -6 -17 79 -8 132 15 36 15 41 15 80 0 55 -23 130 -31
124 -14 -2 7 -23 18 -46 25 -52 15 -48 14 -69 14 -33 0 -4 11 43 16 27 3 62 9
77 14 24 8 34 5 65 -20 72 -58 179 -73 250 -36 l27 14 -75 36 c-41 20 -84 36
-95 37 -13 0 -8 5 17 15 36 15 39 15 75 -7 45 -28 54 -30 118 -32 50 -1 145
32 145 50 0 15 -131 48 -180 46 -82 -2 -148 -19 -183 -46 -30 -23 -46 -27
-130 -30 -53 -3 -100 -8 -106 -12 -6 -3 -11 -1 -11 5 0 6 7 13 15 16 16 7 21
34 6 34 -5 0 -28 -16 -52 -35 -32 -28 -48 -35 -68 -30 -42 8 -100 14 -195 20
-104 5 -124 11 -146 38 -11 13 -37 24 -71 29 -108 18 -143 18 -216 -5z m161
-17 c-10 -10 -133 -27 -123 -17 3 4 30 11 60 16 76 12 74 12 63 1z m1029 -6
c26 -3 47 -10 47 -14 0 -5 -8 -7 -17 -5 -10 2 -39 7 -65 10 -27 3 -48 11 -48
16 0 6 8 8 18 5 9 -3 38 -8 65 -12z m-843 -63 c0 -5 -8 -11 -17 -14 -10 -3
-33 -10 -50 -15 -18 -6 -35 -7 -38 -2 -3 5 16 15 42 23 60 19 63 19 63 8z
m628 -6 c53 -16 75 -41 25 -29 -37 9 -93 33 -93 39 0 8 13 6 68 -10z"/>
<path d="M1360 1030 c0 -11 33 -30 51 -30 8 0 5 7 -6 20 -19 21 -45 27 -45 10z"/>
<path d="M642 843 c-54 -3 -62 -6 -58 -21 5 -18 9 -81 6 -97 -1 -5 -1 -29 0
-53 1 -24 -4 -50 -10 -58 -11 -12 -6 -14 29 -14 44 0 43 -3 26 84 -3 15 1 17
26 14 25 -4 29 -1 29 19 0 19 -5 23 -28 23 -26 0 -28 3 -24 31 4 29 7 31 38
26 32 -5 34 -4 34 24 0 16 -1 28 -2 27 -2 -1 -31 -3 -66 -5z"/>
<path d="M760 831 c-23 -18 -24 -26 -25 -111 0 -102 11 -123 65 -123 52 0 60
16 60 117 0 97 -3 107 -37 125 -29 15 -34 14 -63 -8z m58 -115 c-2 -64 -6 -81
-18 -81 -12 0 -16 16 -18 74 -3 85 1 103 23 95 13 -5 15 -21 13 -88z"/>
<path d="M938 829 c-27 -20 -28 -24 -28 -108 0 -71 3 -91 18 -104 22 -19 40
-23 74 -14 33 9 41 41 36 140 -3 68 -5 73 -33 89 -37 21 -35 21 -67 -3z m57
-114 c0 -73 -10 -95 -36 -79 -14 8 -11 148 3 162 22 22 33 -6 33 -83z"/>
<path d="M1088 735 c3 -73 0 -110 -8 -120 -11 -13 -5 -15 43 -15 72 0 87 14
88 88 1 31 3 68 4 82 5 45 -19 65 -77 68 l-53 2 3 -105z m80 -19 c-3 -68 -6
-81 -20 -84 -16 -3 -18 6 -18 86 0 86 1 90 20 85 19 -5 21 -12 18 -87z"/>
<path d="M690 760 c0 -5 5 -10 10 -10 6 0 10 5 10 10 0 6 -4 10 -10 10 -5 0
-10 -4 -10 -10z"/>
<path d="M1061 754 c0 -11 3 -14 6 -6 3 7 2 16 -1 19 -3 4 -6 -2 -5 -13z"/>
<path d="M882 715 c0 -16 2 -22 5 -12 2 9 2 23 0 30 -3 6 -5 -1 -5 -18z"/>
<path d="M1525 837 c-32 -19 -35 -28 -35 -118 0 -97 12 -119 67 -119 50 0 63
25 63 122 0 68 -3 88 -17 100 -26 23 -55 28 -78 15z m45 -118 c0 -81 -2 -90
-17 -87 -15 3 -18 16 -21 82 -3 76 3 95 31 96 4 0 7 -41 7 -91z"/>
<path d="M1324 828 c-2 -4 0 -9 6 -13 15 -9 13 -188 -2 -203 -9 -9 -2 -12 31
-12 37 0 42 2 32 14 -7 8 -11 32 -9 53 3 35 5 38 29 35 23 -3 27 0 25 23 -1
22 -4 25 -28 19 -26 -5 -28 -3 -28 26 0 32 1 32 38 27 33 -6 37 -4 37 16 0 20
-5 22 -63 22 -35 0 -66 -3 -68 -7z"/>
<path d="M1665 721 l0 -117 33 0 c21 0 29 3 22 10 -12 12 -13 86 -1 86 5 0 15
-22 22 -50 11 -45 16 -50 41 -50 20 0 26 4 22 15 -4 8 -10 15 -15 15 -5 0 -9
9 -9 21 0 11 -4 29 -10 39 -7 13 -6 19 4 23 21 8 29 62 14 94 -12 25 -19 28
-68 29 l-55 2 0 -117z m85 50 c0 -17 -6 -31 -16 -35 -24 -9 -24 -9 -24 29 0
28 4 35 20 35 15 0 20 -7 20 -29z"/>
<path d="M1641 774 c0 -11 3 -14 6 -6 3 7 2 16 -1 19 -3 4 -6 -2 -5 -13z"/>
<path d="M1449 751 c14 -25 20 -27 17 -4 -2 9 -8 19 -15 21 -10 3 -10 0 -2
-17z"/>
<path d="M1915 724 l0 -124 58 0 c54 0 57 1 57 25 0 25 -14 33 -25 15 -3 -5
-15 -10 -26 -10 -19 0 -20 6 -18 102 2 100 1 102 -23 109 l-24 6 1 -123z"/>
<path d="M2165 827 c7 -26 6 -192 -2 -213 -4 -11 4 -14 32 -14 31 0 36 3 30
18 -3 9 -8 32 -11 50 -3 29 -1 32 21 32 20 0 25 5 25 24 0 19 -4 22 -25 19
-22 -5 -24 -2 -22 27 2 30 4 32 37 27 31 -4 35 -2 35 19 0 20 -4 23 -30 21
-16 -2 -45 0 -63 4 -31 7 -33 6 -27 -14z"/>
<path d="M2065 722 l0 -117 30 -7 c34 -7 42 -4 28 14 -11 14 -11 197 0 215 5
7 -4 11 -26 11 l-32 0 0 -116z"/>
<path d="M2328 732 c3 -67 0 -107 -8 -117 -9 -11 1 -14 59 -17 l71 -3 0 28 c0
27 -13 36 -25 17 -3 -5 -17 -10 -31 -10 -21 0 -24 4 -24 36 0 33 2 36 25 32
21 -4 25 -1 25 18 0 19 -5 24 -25 24 -21 0 -25 5 -25 29 0 33 23 44 52 27 22
-13 29 -6 21 22 -5 20 -11 22 -62 20 l-56 -3 3 -103z"/>
<path d="M2137 813 c-2 -5 0 -21 4 -38 7 -29 7 -29 8 8 1 35 -3 46 -12 30z"/>
</g>
</svg>
